<svg height="512" width="512" xmlns="http://www.w3.org/2000/svg"><g fill="#73ba25" transform="matrix(1.78945338679 0 0 1.78945340397 -96.25700250167 52.0657568011)"><path d="m309.61748 124.88764c-6.67349-.24506-11.91193-5.87066-11.68904-12.55371.10278-3.23558 1.48587-6.22627 3.83626-8.43436 2.3599-2.20746 5.4422-3.3565 8.67779-3.23478 6.68303.23388 11.92293 5.85011 11.69843 12.54335-.10116 3.22539-1.46532 6.21591-3.82525 8.43356-2.37091 2.19789-5.45322 3.3471-8.69836 3.24594zm2.80877-10.97768c2.97011 0 5.38054-1.60678 5.38054-3.58018 0-1.98376-2.41057-3.59136-5.38054-3.59136-2.9716 0-5.37263 1.6076-5.37263 3.59136 0 1.9734 2.40103 3.58018 5.37263 3.58018"/><path d="m172.32088 194.4927.42949-.0403.0697-.50857c-.11002-.39931-.36899-.75815-.7691-5.70828-.33963-4.38107-1.02808-16.39544 5.01904-22.35331 2.3459-2.32512 5.92773-4.39109 8.7528-5.05938 11.58565-2.82429 26.62434-.86834 39.46736 13.98126 6.62695 7.6736 9.88009 11.17635 11.50658 12.74314l.55826.51871.67908.4892c.52872.29928 22.0734 10.21876 22.0734 10.21876l.43886-.11003.0108-.46822c-.13955-.15973-13.651-17.6142-11.25683-31.99384 1.89624-11.4561 11.01661-10.42819 23.62098-8.99159 4.12131.46902 8.8117 1.00791 13.6618 1.11793 13.54083.0799 28.13148-2.4048 37.12308-6.33703 5.81767-2.54438 9.52969-4.22136 11.85542-6.33704.83722-.68845 1.27608-1.82574 1.72571-3.02355l.3101-.80785c.37835-.96837.92725-3.04372 1.16764-4.17166.11001-.49855.1597-1.03807-.1907-1.30704l-1.24671.22944c-3.94143 2.36527-13.81216 6.87591-23.05191 7.05565-11.44612.23879-34.51805-11.5166-36.92302-12.76409l-.22944-.26897c-.57983-1.37769-4.04225-9.57066-4.77101-11.29638 16.60629 10.93675 30.37653 16.98466 40.92492 17.92269 11.73602 1.04745 20.88734-5.35866 24.79925-8.09388.76752-.51871 1.34736-.93803 1.58616-1.02727l.24959-.40932c-.6497-4.12132-6.78669-24.07984-11.41655-28.870248-1.28689-1.317199-2.31495-2.59407-4.39109-3.812034-16.77524-9.779277-56.6024-15.687619-58.4677-15.956589l-.31945.08986-.1194.279128s-.15034 8.262819-.17053 9.181492c-4.07179-1.357544-33.6389-10.908027-61.36264-11.8756-23.49982-.828171-55.60367-1.946106-100.96938 25.935761l-1.33737.83801c-21.33542 13.3122-36.064828 29.71844-43.7686 48.79859-2.41497 5.99742-5.667956 19.53984-2.4553 32.28297 1.397063 5.57889 3.981764 11.16699 7.475135 16.17681 7.873661 11.31591 21.095825 18.83138 35.336055 20.09808 20.09807 1.79558 35.32668-7.23475 40.74504-24.14034 3.722-11.66551 0-28.77958-14.2704-37.51142-11.60583-7.11536-24.1-5.48886-31.33491-.70861-6.28671 4.17102-9.84898 10.63746-9.77928 17.75296.13956 12.60358 11.00725 19.3096 18.8112 19.31976 2.27461 0 4.55002-.38916 7.12472-1.22717.90867-.27992 1.77622-.61859 2.72427-1.20781l.28992-.18909.1891-.11003-.0697.0302c1.78622-1.1978 2.86383-3.17313 2.86383-5.28896 0-.57905-.0899-1.16763-.24959-1.75668-.91789-3.18327-4.0718-5.11908-7.34494-4.52065l-.43886.0899-.59859.19926-.86833.28993c-1.79623.44886-3.15376.4792-3.43288.4884-.91788-.0597-5.41916-1.40627-5.41916-6.33625v-.0597c.0108-1.80639.73878-3.07389 1.1381-3.76234 1.38691-2.19554 5.2191-4.35076 10.39787-3.8919 6.78668.57841 11.67632 4.06164 14.9193 10.62809 3.0142 6.10681 2.22588 13.61148-2.0258 19.11972-4.22136 5.45948-11.73524 7.77442-21.73474 6.68585-10.07921-1.10714-18.60099-6.90529-23.37122-15.93641-4.670217-8.82187-4.929974-19.29024-.66829-27.33283 10.20877-19.26007 29.47804-19.0608 40.04659-17.23425 15.64729 2.7041 29.84782 15.2278 36.1647 31.8838 1.0079 2.65455 1.52646 4.76007 1.97532 6.67586l.67908 2.88399 17.67232 8.63181.24037.16972.00048-.00015zm125.61845-94.00443c-3.33207 3.09326-5.23927 7.31462-5.399 11.86543-.30849 9.37997 7.05645 17.28379 16.43578 17.63357 4.57099.14956 8.90156-1.45756 12.22441-4.57097 3.32285-3.10344 5.22991-7.31462 5.39899-11.85544.31946-9.39011-7.04563-17.303938-16.44497-17.64278-4.55081-.149549-8.89236 1.456777-12.21521 4.57019" fill-rule="evenodd"/><path d="m270.6588 195.86516h-.1974c-.22816 0-.42595-.1978-.42595-.42595v-3.05689l-.66932 1.01895c-.0759.10628-.21299.15186-.33447.15186h-.0763c-.12148 0-.25853-.0456-.33446-.15186l-.6845-1.01895v3.05689c0 .22815-.1978.42595-.44114.42595h-.19742c-.22816 0-.42595-.1978-.42595-.42595v-3.65028h-2.05351v3.65028c0 .22815-.21298.42595-.45593.42595h-.18262c-.22817 0-.42597-.1978-.42597-.42595v-3.65028h-1.53603c-.22815 0-.41076-.15225-.41076-.39522v-.21296c0-.24336.18261-.3956.41076-.3956h5.38411c.21298 0 .34965.0759.42597.1978l1.01895 1.53603 1.01897-1.53603c.0759-.10669.19779-.1978.42596-.1978h.6845v4.68443c0 .22815-.21298.42595-.45633.42595"/></g></svg>