<svg enable-background="new 0 0 512 512" viewBox="0 0 512 512" xmlns="http://www.w3.org/2000/svg"><path d="m427.5 237.9c-14.5-17.7-33.9-30.7-55.8-37.5 0-.4 0-.9 0-1.4.6-64.3-51-116.9-115.3-117.5s-116.9 51-117.5 115.3v2.2 1.6c-61.3 19.4-95.3 84.8-75.9 146.1s84.8 95.3 146.1 75.9c17.6-5.5 33.6-15.2 46.7-28.1 45.8 45.1 119.4 44.6 164.6-1.1 41.7-42.4 44.8-109.4 7.1-155.5zm-90 160.9c-48.1 0-87.1-39-87.1-87.1.2-8.1-6.2-14.8-14.3-15s-14.8 6.2-15 14.3v.8c0 21 5.7 41.6 16.4 59.6-32.9 35-88 36.6-123 3.7s-36.6-88-3.7-123c23.9-25.4 60.6-34 93.3-22l.3.1c3.3 1.1 8.1 3.3 9.5 4.6 5.9 5.5 15.2 5.2 20.7-.8 5.5-5.9 5.2-15.2-.8-20.7-.3-.3-.6-.5-.9-.7-6.4-5.5-16.5-9.2-19-10-12.8-4.7-26.4-7.1-40.1-7.1-1.9 0-3.8 0-5.6.1 2-48.1 42.6-85.4 90.7-83.3s85.4 42.6 83.3 90.7c-1.1 26.9-14.6 51.7-36.5 67.3-6.7 4.6-8.3 13.7-3.7 20.4s13.7 8.3 20.4 3.7c.1-.1.2-.2.4-.3 21.8-15.6 37.6-38.2 44.7-64 45.1 16.6 68.2 66.7 51.6 111.8-12.6 34.1-45.2 56.8-81.6 56.9z" fill="#f3702a"/></svg>